<?xml version="1.0" encoding="UTF-8" standalone="no"?>
<!DOCTYPE svg PUBLIC "-//W3C//DTD SVG 20010904//EN"
              "http://www.w3.org/TR/2001/REC-SVG-20010904/DTD/svg10.dtd">

<svg xmlns="http://www.w3.org/2000/svg"
     width="15in" height="14.5333in"
     viewBox="0 0 1350 1308">
  <path id="Imported Path"
        fill="black" stroke="black" stroke-width="1"
        d="M 638.10,615.30
           C 631.83,613.04 625.77,610.30 619.96,607.16
             615.27,604.70 610.87,601.73 606.83,598.35
             605.00,596.90 603.31,595.25 601.81,593.45
             601.81,593.45 528.11,580.52 528.11,580.52
             528.42,587.01 530.92,592.94 534.89,597.56
             542.72,606.98 552.16,615.01 562.80,621.21
             577.90,630.44 594.05,638.21 611.00,644.31
             630.10,651.46 650.25,657.04 671.01,660.90
             671.01,660.90 658.40,621.54 658.40,621.54
             651.47,619.89 644.70,617.81 638.11,615.36
             638.11,615.36 638.10,615.30 638.10,615.30 Z
           M 575.11,554.39
           C 566.19,554.94 557.56,556.57 549.34,559.14
             543.27,560.94 537.81,564.20 533.38,568.50
             533.38,568.50 600.85,580.61 600.85,580.61
             602.13,579.15 603.71,577.97 605.50,577.16
             608.66,575.77 612.08,574.82 615.66,574.37
             619.32,573.86 623.13,573.59 627.00,573.59
             627.65,573.59 628.30,573.60 628.94,573.61
             633.68,573.72 638.37,574.07 642.98,574.66
             642.98,574.66 637.53,558.14 637.53,558.14
             627.31,556.34 616.62,555.06 605.78,554.33
             600.94,553.98 595.92,553.81 590.87,553.81
             585.57,553.81 580.32,554.00 575.11,554.38
             575.11,554.38 575.11,554.39 575.11,554.39 Z
           M 578.71,543.58
           C 584.76,543.82 591.08,544.21 597.46,544.79
             603.84,545.36 610.16,546.09 616.72,547.00
             622.77,547.82 628.82,548.81 634.87,550.03
             634.87,550.03 630.33,536.25 630.33,536.25
             621.50,534.52 612.79,532.98 604.23,531.62
             594.90,530.16 585.69,528.92 576.59,527.89
             567.25,526.83 558.02,526.02 548.92,525.41
             545.14,525.17 541.45,525.05 537.70,524.90
             537.70,524.90 575.32,543.58 575.32,543.58
             575.32,543.58 578.71,543.58 578.71,543.58 Z
           M 545.32,544.21
           C 545.32,544.21 505.77,524.26 505.77,524.26
             496.45,524.41 487.26,524.87 478.31,525.59
             468.63,526.41 459.16,527.56 450.06,529.10
             440.62,530.63 431.37,532.74 422.33,535.37
             414.25,537.72 406.43,540.73 398.92,544.29
             398.92,544.29 491.01,560.87 491.01,560.87
             493.84,558.53 496.93,556.49 500.24,554.81
             504.56,552.67 509.13,550.90 513.88,549.54
             518.85,548.07 524.06,546.89 529.38,546.03
             534.56,545.30 539.85,544.67 545.32,544.21
             545.32,544.21 545.32,544.21 545.32,544.21 Z
           M 814.26,599.23
           C 806.04,594.93 797.63,590.78 789.07,586.81
             783.57,584.27 777.88,581.88 772.23,579.49
             772.23,579.49 748.49,585.54 748.49,585.54
             751.69,587.00 754.90,588.57 757.98,589.99
             763.58,592.81 769.02,595.72 774.22,598.71
             779.43,601.71 784.69,605.01 789.34,608.28
             793.25,610.94 796.91,613.70 800.41,616.49
             800.41,616.49 860.41,627.23 860.41,627.23
             853.55,622.45 846.47,617.79 839.24,613.40
             831.20,608.43 822.82,603.71 814.26,599.23
             814.26,599.23 814.26,599.23 814.26,599.23 Z
           M 694.45,607.49
           C 694.77,606.85 694.96,606.12 694.96,605.34
             694.96,604.36 694.66,603.44 694.14,602.68
             692.79,600.53 691.01,598.69 688.91,597.26
             686.21,595.31 683.30,593.61 680.23,592.20
             678.57,591.42 676.81,590.69 674.97,589.96
             674.97,589.96 674.97,581.67 674.97,581.67
             676.30,582.09 677.69,582.48 678.99,582.94
             684.22,584.72 689.24,586.69 693.84,588.81
             698.25,590.78 702.51,593.05 706.60,595.58
             709.11,597.16 711.51,598.92 713.77,600.83
             713.77,600.83 769.29,610.79 769.29,610.79
             762.88,605.43 755.99,600.61 748.72,596.38
             739.74,591.11 730.34,586.38 720.62,582.24
             710.59,578.00 700.04,574.07 689.12,570.58
             684.50,569.10 679.75,567.74 674.94,566.41
             674.94,566.41 674.94,558.93 674.94,558.93
             680.14,560.32 685.34,561.74 690.42,563.29
             696.69,565.19 702.85,567.20 708.90,569.34
             714.95,571.48 720.95,573.71 726.90,576.03
             726.90,576.03 750.73,570.62 750.73,570.62
             742.34,567.39 733.84,564.31 725.23,561.38
             716.62,558.45 708.00,555.70 699.38,553.11
             691.36,550.72 683.20,548.45 674.97,546.30
             674.97,546.30 674.97,437.00 674.97,437.00
             714.98,415.50 759.65,448.05 788.35,389.64
             749.76,401.54 726.23,369.69 674.97,369.24
             674.97,369.24 651.17,369.24 651.17,369.24
             651.17,369.24 651.17,584.00 651.17,584.00
             648.99,583.73 646.88,583.54 644.91,583.48
             644.23,583.45 643.53,583.43 642.82,583.43
             640.30,583.43 637.82,583.65 635.41,584.05
             633.11,584.37 630.98,585.23 629.15,586.51
             628.02,587.29 627.27,588.60 627.27,590.08
             627.27,590.34 627.29,590.59 627.34,590.84
             627.97,593.09 629.30,595.04 631.09,596.44
             633.71,598.70 636.61,600.64 639.75,602.19
             643.67,604.22 647.80,605.93 652.09,607.31
             656.72,608.86 661.59,610.07 666.59,610.91
             670.86,611.69 675.35,612.10 679.92,612.10
             679.96,612.10 680.01,612.10 680.05,612.10
             680.21,612.10 680.37,612.10 680.54,612.10
             683.67,612.10 686.70,611.66 689.58,610.83
             691.58,610.36 693.31,609.14 694.45,607.49
             694.45,607.49 694.45,607.49 694.45,607.49 Z
           M 722.51,614.64
           C 722.45,615.91 722.06,617.10 721.42,618.12
             719.76,620.44 717.41,622.23 714.66,623.18
             710.66,624.69 706.36,625.65 701.88,625.96
             698.91,626.23 695.82,626.36 692.70,626.36
             689.61,626.36 686.55,626.23 683.53,625.97
             683.53,625.97 700.83,665.32 700.83,665.32
             708.33,666.19 716.13,666.63 724.03,666.63
             733.00,666.63 741.83,666.06 750.49,664.95
             763.25,663.02 772.80,659.54 779.06,654.94
             784.18,651.68 787.61,646.00 787.74,639.50
             787.45,634.18 785.60,629.27 782.63,625.24
             782.63,625.24 722.51,614.64 722.51,614.64 Z
           M 675.00,258.88
           C 674.44,258.87 673.84,258.87 673.23,258.87
             528.21,258.87 388.75,282.69 258.53,326.63
             286.46,468.09 337.59,601.28 407.63,722.13
             478.38,845.31 569.00,955.74 674.95,1049.13
             780.71,955.85 871.17,845.56 942.07,722.55
             1012.04,602.38 1063.18,469.46 1091.46,328.27
             961.55,283.49 821.11,259.10 675.02,258.87
             675.02,258.87 675.00,258.88 675.00,258.88 Z
           M 913.31,674.65
           C 913.31,674.65 911.82,673.35 911.82,673.35
             907.40,667.81 902.65,662.54 897.61,657.57
             892.44,652.46 886.75,647.37 880.58,642.43
             880.58,642.43 816.20,631.14 816.20,631.14
             818.37,633.60 820.39,636.19 822.25,638.91
             824.75,642.43 826.80,646.31 828.30,650.45
             829.40,653.50 830.00,656.82 830.00,660.28
             830.00,660.82 829.99,661.35 829.96,661.87
             829.78,664.46 829.19,666.94 828.24,669.23
             828.24,669.23 897.10,703.29 897.10,703.29
             894.34,708.05 891.56,712.80 888.75,717.49
             888.75,717.49 818.01,681.83 818.01,681.83
             813.96,684.90 809.48,687.44 804.69,689.36
             797.66,692.18 790.20,694.28 782.47,695.60
             772.78,697.34 762.66,698.37 752.35,698.63
             749.52,698.71 746.60,698.75 743.66,698.75
             733.93,698.75 724.29,698.31 714.77,697.47
             714.77,697.47 760.13,800.70 760.13,800.70
             780.97,801.30 812.33,800.70 837.67,796.06
             789.88,864.07 735.27,927.03 674.94,983.97
             592.57,906.13 520.80,817.13 462.04,719.41
             482.83,731.04 504.64,741.41 527.15,750.40
             556.36,762.39 587.08,772.40 618.63,780.29
             649.68,788.26 682.27,794.13 715.52,797.76
             715.52,797.76 681.74,693.24 681.74,693.24
             667.35,690.88 652.92,687.79 638.77,684.16
             624.62,680.52 610.34,676.07 596.98,671.26
             583.61,666.44 571.27,661.33 559.72,655.85
             549.77,651.23 540.11,646.02 530.77,640.34
             530.77,640.34 431.43,665.48 431.43,665.48
             427.86,658.85 424.35,652.21 420.91,645.55
             420.91,645.55 509.36,625.51 509.36,625.51
             503.15,620.65 497.41,615.19 492.25,609.22
             488.35,604.77 485.10,599.73 482.63,594.27
             480.86,590.38 479.87,586.04 479.87,581.47
             479.87,581.31 479.88,581.14 479.88,580.97
             479.97,577.99 480.62,575.15 481.72,572.55
             481.72,572.55 481.72,572.55 481.72,572.55
             481.72,572.55 378.30,554.39 378.30,554.39
             351.99,492.91 330.65,428.00 314.79,360.97
             428.64,326.50 550.57,307.98 676.81,307.98
             801.14,307.98 921.27,325.94 1034.77,359.42
             1008.80,471.04 967.56,576.86 913.57,674.64
             913.57,674.64 913.31,674.65 913.31,674.65 Z
           M 2022.00,754.00" />
</svg>
