<?xml version="1.0" encoding="UTF-8" standalone="no"?>
<!DOCTYPE svg PUBLIC "-//W3C//DTD SVG 20010904//EN"
              "http://www.w3.org/TR/2001/REC-SVG-20010904/DTD/svg10.dtd">

<svg xmlns="http://www.w3.org/2000/svg"
     width="9.8in" height="9.48889in"
     viewBox="0 0 882 854">
  <path id="Imported Path"
        fill="black" stroke="black" stroke-width="1"
        d="M 409.10,389.30
           C 402.83,387.04 396.77,384.30 390.96,381.16
             386.27,378.70 381.87,375.73 377.83,372.35
             376.00,370.90 374.31,369.25 372.81,367.45
             372.81,367.45 299.11,354.52 299.11,354.52
             299.42,361.01 301.92,366.94 305.89,371.56
             313.72,380.98 323.16,389.01 333.80,395.21
             348.90,404.44 365.05,412.21 382.00,418.31
             401.10,425.46 421.25,431.04 442.01,434.90
             442.01,434.90 429.40,395.54 429.40,395.54
             422.47,393.89 415.70,391.81 409.11,389.36
             409.11,389.36 409.10,389.30 409.10,389.30 Z
           M 346.11,328.39
           C 337.19,328.94 328.56,330.57 320.34,333.14
             314.27,334.94 308.81,338.20 304.38,342.50
             304.38,342.50 371.85,354.61 371.85,354.61
             373.13,353.15 374.71,351.97 376.50,351.16
             379.66,349.77 383.08,348.82 386.66,348.37
             390.32,347.86 394.13,347.59 398.00,347.59
             398.65,347.59 399.30,347.60 399.94,347.61
             404.68,347.72 409.37,348.07 413.98,348.66
             413.98,348.66 408.53,332.14 408.53,332.14
             398.31,330.34 387.62,329.06 376.78,328.33
             371.94,327.98 366.92,327.81 361.87,327.81
             356.57,327.81 351.32,328.00 346.11,328.38
             346.11,328.38 346.11,328.39 346.11,328.39 Z
           M 349.71,317.58
           C 355.76,317.82 362.08,318.21 368.46,318.79
             374.84,319.36 381.16,320.09 387.72,321.00
             393.77,321.82 399.82,322.81 405.87,324.03
             405.87,324.03 401.33,310.25 401.33,310.25
             392.50,308.52 383.79,306.98 375.23,305.62
             365.90,304.16 356.69,302.92 347.59,301.89
             338.25,300.83 329.02,300.02 319.92,299.41
             316.14,299.17 312.45,299.05 308.70,298.90
             308.70,298.90 346.32,317.58 346.32,317.58
             346.32,317.58 349.71,317.58 349.71,317.58 Z
           M 316.32,318.21
           C 316.32,318.21 276.77,298.26 276.77,298.26
             267.45,298.41 258.26,298.87 249.31,299.59
             239.63,300.41 230.16,301.56 221.06,303.10
             211.62,304.63 202.37,306.74 193.33,309.37
             185.25,311.72 177.43,314.73 169.92,318.29
             169.92,318.29 262.01,334.87 262.01,334.87
             264.84,332.53 267.93,330.49 271.24,328.81
             275.56,326.67 280.13,324.90 284.88,323.54
             289.85,322.07 295.06,320.89 300.38,320.03
             305.56,319.30 310.85,318.67 316.32,318.21
             316.32,318.21 316.32,318.21 316.32,318.21 Z
           M 585.26,373.23
           C 577.04,368.93 568.63,364.78 560.07,360.81
             554.57,358.27 548.88,355.88 543.23,353.49
             543.23,353.49 519.49,359.54 519.49,359.54
             522.69,361.00 525.90,362.57 528.98,363.99
             534.58,366.81 540.02,369.72 545.22,372.71
             550.43,375.71 555.69,379.01 560.34,382.28
             564.25,384.94 567.91,387.70 571.41,390.49
             571.41,390.49 631.41,401.23 631.41,401.23
             624.55,396.45 617.47,391.79 610.24,387.40
             602.20,382.43 593.82,377.71 585.26,373.23
             585.26,373.23 585.26,373.23 585.26,373.23 Z
           M 465.45,381.49
           C 465.77,380.85 465.96,380.12 465.96,379.34
             465.96,378.36 465.66,377.44 465.14,376.68
             463.79,374.53 462.01,372.69 459.91,371.26
             457.21,369.31 454.30,367.61 451.23,366.20
             449.57,365.42 447.81,364.69 445.97,363.96
             445.97,363.96 445.97,355.67 445.97,355.67
             447.30,356.09 448.69,356.48 449.99,356.94
             455.22,358.72 460.24,360.69 464.84,362.81
             469.25,364.78 473.51,367.05 477.60,369.58
             480.11,371.16 482.51,372.92 484.77,374.83
             484.77,374.83 540.29,384.79 540.29,384.79
             533.88,379.43 526.99,374.61 519.72,370.38
             510.74,365.11 501.34,360.38 491.62,356.24
             481.59,352.00 471.04,348.07 460.12,344.58
             455.50,343.10 450.75,341.74 445.94,340.41
             445.94,340.41 445.94,332.93 445.94,332.93
             451.14,334.32 456.34,335.74 461.42,337.29
             467.69,339.19 473.85,341.20 479.90,343.34
             485.95,345.48 491.95,347.71 497.90,350.03
             497.90,350.03 521.73,344.62 521.73,344.62
             513.34,341.39 504.84,338.31 496.23,335.38
             487.62,332.45 479.00,329.70 470.38,327.11
             462.36,324.72 454.20,322.45 445.97,320.30
             445.97,320.30 445.97,211.00 445.97,211.00
             485.98,189.50 530.65,222.05 559.35,163.64
             520.76,175.54 497.23,143.69 445.97,143.24
             445.97,143.24 422.17,143.24 422.17,143.24
             422.17,143.24 422.17,358.00 422.17,358.00
             419.99,357.73 417.88,357.54 415.91,357.48
             415.23,357.45 414.53,357.43 413.82,357.43
             411.30,357.43 408.82,357.65 406.41,358.05
             404.11,358.37 401.98,359.23 400.15,360.51
             399.02,361.29 398.27,362.60 398.27,364.08
             398.27,364.34 398.29,364.59 398.34,364.84
             398.97,367.09 400.30,369.04 402.09,370.44
             404.71,372.70 407.61,374.64 410.75,376.19
             414.67,378.22 418.80,379.93 423.09,381.31
             427.72,382.86 432.59,384.07 437.59,384.91
             441.86,385.69 446.35,386.10 450.92,386.10
             450.96,386.10 451.01,386.10 451.05,386.10
             451.21,386.10 451.37,386.10 451.54,386.10
             454.67,386.10 457.70,385.66 460.58,384.83
             462.58,384.36 464.31,383.14 465.45,381.49
             465.45,381.49 465.45,381.49 465.45,381.49 Z
           M 493.51,388.64
           C 493.45,389.91 493.06,391.10 492.42,392.12
             490.76,394.44 488.41,396.23 485.66,397.18
             481.66,398.69 477.36,399.65 472.88,399.96
             469.91,400.23 466.82,400.36 463.70,400.36
             460.61,400.36 457.55,400.23 454.53,399.97
             454.53,399.97 471.83,439.32 471.83,439.32
             479.33,440.19 487.13,440.63 495.03,440.63
             504.00,440.63 512.83,440.06 521.49,438.95
             534.25,437.02 543.80,433.54 550.06,428.94
             555.18,425.68 558.61,420.00 558.74,413.50
             558.45,408.18 556.60,403.27 553.63,399.24
             553.63,399.24 493.51,388.64 493.51,388.64 Z
           M 446.00,32.88
           C 445.44,32.87 444.84,32.87 444.23,32.87
             299.21,32.87 159.75,56.69 29.53,100.63
             57.46,242.09 108.59,375.28 178.63,496.13
             249.38,619.31 340.00,729.74 445.95,823.13
             551.71,729.85 642.17,619.56 713.07,496.55
             783.04,376.38 834.18,243.46 862.46,102.27
             732.55,57.49 592.11,33.10 446.02,32.87
             446.02,32.87 446.00,32.88 446.00,32.88 Z
           M 684.31,448.65
           C 684.31,448.65 682.82,447.35 682.82,447.35
             678.40,441.81 673.65,436.54 668.61,431.57
             663.44,426.46 657.75,421.37 651.58,416.43
             651.58,416.43 587.20,405.14 587.20,405.14
             589.37,407.60 591.39,410.19 593.25,412.91
             595.75,416.43 597.80,420.31 599.30,424.45
             600.40,427.50 601.00,430.82 601.00,434.28
             601.00,434.82 600.99,435.35 600.96,435.87
             600.78,438.46 600.19,440.94 599.24,443.23
             599.24,443.23 668.10,477.29 668.10,477.29
             665.34,482.05 662.56,486.80 659.75,491.49
             659.75,491.49 589.01,455.83 589.01,455.83
             584.96,458.90 580.48,461.44 575.69,463.36
             568.66,466.18 561.20,468.28 553.47,469.60
             543.78,471.34 533.66,472.37 523.35,472.63
             520.52,472.71 517.60,472.75 514.66,472.75
             504.93,472.75 495.29,472.31 485.77,471.47
             485.77,471.47 531.13,574.70 531.13,574.70
             551.97,575.30 583.33,574.70 608.67,570.06
             560.88,638.07 506.27,701.03 445.94,757.97
             363.57,680.13 291.80,591.13 233.04,493.41
             253.83,505.04 275.64,515.41 298.15,524.40
             327.36,536.39 358.08,546.40 389.63,554.29
             420.68,562.26 453.27,568.13 486.52,571.76
             486.52,571.76 452.74,467.24 452.74,467.24
             438.35,464.88 423.92,461.79 409.77,458.16
             395.62,454.52 381.34,450.07 367.98,445.26
             354.61,440.44 342.27,435.33 330.72,429.85
             320.77,425.23 311.11,420.02 301.77,414.34
             301.77,414.34 202.43,439.48 202.43,439.48
             198.86,432.85 195.35,426.21 191.91,419.55
             191.91,419.55 280.36,399.51 280.36,399.51
             274.15,394.65 268.41,389.19 263.25,383.22
             259.35,378.77 256.10,373.73 253.63,368.27
             251.86,364.38 250.87,360.04 250.87,355.47
             250.87,355.31 250.88,355.14 250.88,354.97
             250.97,351.99 251.62,349.15 252.72,346.55
             252.72,346.55 252.72,346.55 252.72,346.55
             252.72,346.55 149.30,328.39 149.30,328.39
             122.99,266.91 101.65,202.00 85.79,134.97
             199.64,100.50 321.57,81.98 447.81,81.98
             572.14,81.98 692.27,99.94 805.77,133.42
             779.80,245.04 738.56,350.86 684.57,448.64
             684.57,448.64 684.31,448.65 684.31,448.65 Z
           M 1793.00,528.00" />
</svg>
